<svg xmlns="http://www.w3.org/2000/svg" viewBox="0 0 200 200" width="200" height="200" fill="none" stroke="currentColor" stroke-width="2.6" stroke-linecap="round" stroke-linejoin="round" style="color:#0f766e; --vj-accent:#f4734d; --vj-surface:rgba(15,118,110,0.09); --vj-halo:#f6f4ee; overflow:visible;">
  
  <defs><clipPath id="vjDome" clipPathUnits="userSpaceOnUse"><rect x="-20" y="-20" width="240" height="170"></rect></clipPath></defs>
  <g clip-path="url(#vjDome)">
    <circle cx="100" cy="212" r="140" style="fill:var(--vj-surface,rgba(15,118,110,0.09));" stroke="currentColor" stroke-width="3"></circle>
    <g style="transform-box:view-box;transform-origin:100px 212px;animation:vj-spin 20s linear infinite;">
      <g transform="rotate(0 100 212)"><g style="transform-box:fill-box;transform-origin:50% 100%;animation:vj-pop 20s ease-in-out -20s infinite;"><rect x="85" y="50" width="11" height="22" rx="1"></rect><rect x="98" y="42" width="12" height="30" rx="1"></rect><rect x="111" y="57" width="9" height="15" rx="1"></rect><line x1="101" y1="50" x2="107" y2="50"></line><line x1="101" y1="57" x2="107" y2="57"></line><g style="stroke:var(--vj-accent,#f4734d);"><line x1="104" y1="42" x2="104" y2="35"></line><path d="M104 35 L110 37 L104 40 Z" style="fill:var(--vj-accent,#f4734d);"></path></g></g></g>
      <g transform="rotate(45 100 212)"><g style="transform-box:fill-box;transform-origin:50% 100%;animation:vj-pop 20s ease-in-out -17.5s infinite;"><path d="M80 72 L97 46 L114 72"></path><path d="M103 72 L116 56 L122 72"></path><path d="M92 53 L97 46 L102 53"></path></g></g>
      <g transform="rotate(90 100 212)"><g style="transform-box:fill-box;transform-origin:50% 100%;animation:vj-pop 20s ease-in-out -15s infinite;"><line x1="91" y1="72" x2="91" y2="62"></line><path d="M84 62 L91 48 L98 62 Z"></path><path d="M86 68 L91 58 L96 68 Z"></path><line x1="108" y1="72" x2="108" y2="65"></line><path d="M102 65 L108 54 L114 65 Z"></path></g></g>
      <g transform="rotate(135 100 212)"><g style="transform-box:fill-box;transform-origin:50% 100%;animation:vj-pop 20s ease-in-out -12.5s infinite;"><path d="M93 72 L100 40 L107 72"></path><path d="M95 66 Q100 60 105 66"></path><line x1="96" y1="58" x2="104" y2="58"></line><line x1="97.5" y1="50" x2="102.5" y2="50"></line><g style="stroke:var(--vj-accent,#f4734d);"><line x1="100" y1="40" x2="100" y2="33"></line><path d="M100 33 L106 35 L100 38 Z" style="fill:var(--vj-accent,#f4734d);"></path></g></g></g>
      <g transform="rotate(180 100 212)"><g style="transform-box:fill-box;transform-origin:50% 100%;animation:vj-pop 20s ease-in-out -10s infinite;"><path d="M83 72 L100 45 L117 72 Z"></path><line x1="100" y1="45" x2="109" y2="72"></line></g></g>
      <g transform="rotate(225 100 212)"><g style="transform-box:fill-box;transform-origin:50% 100%;animation:vj-pop 20s ease-in-out -7.5s infinite;"><path d="M85 53 L100 43 L115 53 Z"></path><line x1="84" y1="56" x2="116" y2="56"></line><line x1="90" y1="56" x2="90" y2="72"></line><line x1="97" y1="56" x2="97" y2="72"></line><line x1="104" y1="56" x2="104" y2="72"></line><line x1="110" y1="56" x2="110" y2="72"></line><line x1="84" y1="72" x2="116" y2="72"></line></g></g>
      <g transform="rotate(270 100 212)"><g style="transform-box:fill-box;transform-origin:50% 100%;animation:vj-pop 20s ease-in-out -5s infinite;"><g style="stroke:var(--vj-accent,#f4734d);" stroke-width="2.2"><circle cx="82" cy="35" r="4.4" style="fill:var(--vj-accent,#f4734d);fill-opacity:0.2;"></circle><line x1="88.5" y1="35" x2="91.5" y2="35"></line><line x1="75.5" y1="35" x2="72.5" y2="35"></line><line x1="82" y1="28.6" x2="82" y2="25.5"></line><line x1="82" y1="41.4" x2="82" y2="44.5"></line><line x1="86.6" y1="30.4" x2="88.7" y2="28.3"></line><line x1="77.4" y1="39.6" x2="75.3" y2="41.7"></line><line x1="86.6" y1="39.6" x2="88.7" y2="41.7"></line><line x1="77.4" y1="30.4" x2="75.3" y2="28.3"></line></g><path d="M98 72 Q101 60 103 49"></path><path d="M103 48 Q91 47 84 54"></path><path d="M103 48 Q93 39 86 41"></path><path d="M103 48 Q103 38 107 36"></path><path d="M103 48 Q113 39 120 41"></path><path d="M103 48 Q115 47 122 54"></path><circle cx="100.5" cy="51" r="1.6" style="fill:currentColor;" stroke="none"></circle><circle cx="105.5" cy="51" r="1.6" style="fill:currentColor;" stroke="none"></circle></g></g>
      <g transform="rotate(315 100 212)"><g style="transform-box:fill-box;transform-origin:50% 100%;animation:vj-pop 20s ease-in-out -2.5s infinite;"><circle cx="100" cy="55" r="13"></circle><circle cx="100" cy="55" r="1.8" style="fill:currentColor;"></circle><line x1="100" y1="42" x2="100" y2="68"></line><line x1="87" y1="55" x2="113" y2="55"></line><line x1="91" y1="46" x2="109" y2="64"></line><line x1="109" y1="46" x2="91" y2="64"></line><path d="M93 72 L100 55 L107 72"></path><circle cx="100" cy="42" r="2.6" style="fill:var(--vj-accent,#f4734d);stroke:var(--vj-accent,#f4734d);"></circle></g></g>
    </g>
  </g>
  <g fill="currentColor" stroke="none" style="transform-box:view-box;transform-origin:100px 72px;animation:vj-bob 0.5s ease-in-out infinite;filter:drop-shadow(0 0 1.8px var(--vj-halo,#f6f4ee)) drop-shadow(0 0 1.8px var(--vj-halo,#f6f4ee)) drop-shadow(0 0 1.8px var(--vj-halo,#f6f4ee));">
    <g style="transform-box:view-box;transform-origin:100px 56px;animation:vj-legb 1s ease-in-out infinite;">
      <path d="M98.3 56 L101.7 56 L101.3 64.5 L98.7 64.5 Z"></path>
      <g style="transform-box:fill-box;transform-origin:23% 0%;animation:vj-kneeb 1s ease-in-out infinite;"><path d="M98.5 64 L101.5 64 L101.3 71 L98.7 71 L98.7 73 L105.3 73 L105.3 71.2 L101.3 70.5 Z"></path></g>
    </g>
    <g style="transform-box:view-box;transform-origin:100px 56px;animation:vj-legf 1s ease-in-out infinite;">
      <path d="M98.3 56 L101.7 56 L101.3 64.5 L98.7 64.5 Z"></path>
      <g style="transform-box:fill-box;transform-origin:23% 0%;animation:vj-kneef 1s ease-in-out infinite;"><path d="M98.5 64 L101.5 64 L101.3 71 L98.7 71 L98.7 73 L105.3 73 L105.3 71.2 L101.3 70.5 Z"></path></g>
    </g>
    <g style="transform-box:view-box;transform-origin:100px 56px;animation:vj-sway 1s ease-in-out infinite;">
      <g style="transform-box:view-box;transform-origin:100px 41px;animation:vj-armb 1s ease-in-out infinite;"><path d="M98.7 41 L101.3 41 L100.7 63 L99.3 63 Z"></path></g>
      <rect x="89" y="43.5" width="8" height="11" rx="3" style="fill:var(--vj-accent,#f4734d);"></rect>
      <rect x="94.4" y="42.5" width="1.9" height="10" rx="0.9" style="fill:var(--vj-accent,#f4734d);"></rect>
      <path d="M97.7 40.5 C97.7 38.2 103.1 38.2 103.1 40.5 L104 54 L102.7 61 L100.7 57.8 L100.1 57.8 L98.1 61 L96.8 54 Z"></path>
      <g style="transform-box:view-box;transform-origin:100px 41px;animation:vj-arma 1s ease-in-out infinite;"><path d="M98.7 41 L101.3 41 L100.7 63 L99.3 63 Z"></path></g>
      <circle cx="100.4" cy="32.5" r="5.2"></circle>
      <path d="M104.5 31.1 Q106.7 31.5 106.6 32.6 Q106.5 33.7 104.5 34.1 Z"></path>
      <path d="M95.3 33 Q94.9 26.4 100.4 26.4 Q105.9 26.4 105.5 33 Q104 30.1 101 30.5 Q97.6 30.9 95.3 33 Z"></path>
    </g>
  </g>
</svg>